<svg xmlns="http://www.w3.org/2000/svg" version="1.1" xmlns:xlink="http://www.w3.org/1999/xlink" width="512" height="512" x="0" y="0" viewBox="0 0 128 128" style="enable-background:new 0 0 512 512" xml:space="preserve" class=""><g><path fill="#cce6ff" d="M105.169 4.557a9.162 9.162 0 0 0-6.522 2.7l-3.675 3.674a10.057 10.057 0 0 1 2.475 2.475l3.675-3.675a5.724 5.724 0 0 1 9.771 4.047V48.5h3.5V13.78a9.234 9.234 0 0 0-9.224-9.223zM101.327 110.866l2.399 10.827h-6.353l-5.803-10.827zM26.673 110.866l-2.399 10.827h6.353l5.803-10.827z" opacity="1" data-original="#cce6ff"></path><path fill="#e6f2ff" d="M109.144 48.504h6.996v14.804h-6.996z" opacity="1" data-original="#e6f2ff"></path><path fill="#99ccff" d="M79.615 63.308a9.8 9.8 0 0 0-12.7-9.35c.012-.173.026-.344.026-.519a7.231 7.231 0 0 0-11.133-6.1 10.993 10.993 0 0 0-21.234 5.3 10.105 10.105 0 0 0-.874-.045 10.249 10.249 0 0 0-10.254 10.257v.457z" opacity="1" data-original="#99ccff"></path><path fill="#e6f2ff" d="m116.14 74.188-8.031 31.412a7 7 0 0 1-6.782 5.266H26.673a7 7 0 0 1-6.782-5.266L11.86 74.188z" opacity="1" data-original="#e6f2ff"></path><path fill="#cce6ff" d="M11.307 63.308h105.386a5 5 0 0 1 5 5v5.88H6.307v-5.88a5 5 0 0 1 5-5z" opacity="1" data-original="#cce6ff"></path><g fill="#9cf"><path d="M82.566 27.564a1.75 1.75 0 0 1-1.237-2.988l1.18-1.18a1.75 1.75 0 0 1 2.475 2.476l-1.184 1.18a1.746 1.746 0 0 1-1.234.512zM76.909 33.221a1.75 1.75 0 0 1-1.238-2.987l1.181-1.181a1.75 1.75 0 0 1 2.475 2.475l-1.18 1.18a1.745 1.745 0 0 1-1.238.513zM71.252 38.878a1.75 1.75 0 0 1-1.237-2.987l1.18-1.181a1.75 1.75 0 1 1 2.475 2.475l-1.18 1.18a1.745 1.745 0 0 1-1.238.513zM88.019 32.984a1.749 1.749 0 0 1-1.428-2.76l.965-1.363a1.75 1.75 0 1 1 2.857 2.021l-.964 1.363a1.75 1.75 0 0 1-1.43.739zM83.4 39.515a1.75 1.75 0 0 1-1.427-2.761l.964-1.362a1.75 1.75 0 0 1 2.857 2.021l-.964 1.363a1.747 1.747 0 0 1-1.43.739zM77.147 22.11a1.75 1.75 0 0 1-1.012-3.179l1.363-.964a1.75 1.75 0 0 1 2.021 2.858l-1.362.964a1.744 1.744 0 0 1-1.01.321zM70.617 26.731a1.75 1.75 0 0 1-1.017-3.179l1.363-.964a1.75 1.75 0 1 1 2.022 2.857l-1.363.965a1.743 1.743 0 0 1-1.005.321z" fill="#99ccff" opacity="1" data-original="#99ccff"></path></g><path fill="#e6f2ff" d="M80.879 12.062A10.917 10.917 0 0 1 96.318 27.5z" opacity="1" data-original="#e6f2ff"></path></g></svg>