<svg xmlns="http://www.w3.org/2000/svg" version="1.1" xmlns:xlink="http://www.w3.org/1999/xlink" width="512" height="512" x="0" y="0" viewBox="0 0 512 512" style="enable-background:new 0 0 512 512" xml:space="preserve" class=""><g><path fill="#ececf6" d="M29.133 333.927 191.368 512h279.424C493.551 512 512 493.551 512 470.793V144.225l-21.119-10.302H116.279z" opacity="1" data-original="#ececf6" class=""></path><path fill="#e2e2f1" d="M512 144.225v-20.604L256 82.414l-120.216 19.351L0 123.622v347.171C0 493.551 18.449 512 41.207 512h150.161c-42.519-83.159-67.103-181.512-67.103-286.905 0-24.296 1.307-48.217 3.839-71.665a10.311 10.311 0 0 1 10.251-9.204H512z" opacity="1" data-original="#e2e2f1"></path><path fill="#5c85da" d="M132.016 123.622H512V41.207C512 18.449 493.551 0 470.793 0H164.161L84.86 61.811z" opacity="1" data-original="#5c85da"></path><path fill="#4677d5" d="M41.207 0C18.45 0 0 18.45 0 41.207v82.414h132.016C138.711 80.37 149.606 38.942 164.161 0z" opacity="1" data-original="#4677d5"></path><circle cx="61.811" cy="61.811" r="15.453" fill="#fd7a6e" opacity="1" data-original="#fd7a6e"></circle><circle cx="123.622" cy="61.811" r="15.453" fill="#ffef64" opacity="1" data-original="#ffef64"></circle><circle cx="185.433" cy="61.811" r="15.453" fill="#60daa8" opacity="1" data-original="#60daa8"></circle><path fill="#83deff" d="M124.48 242.093h169.122c10.733 0 19.549-8.206 20.516-18.687a3.095 3.095 0 0 1 1.986-2.628l25.162-9.436c4.902-1.838 4.902-8.772 0-10.61l-25.162-9.436a3.098 3.098 0 0 1-1.986-2.628c-.967-10.48-9.783-18.687-20.516-18.687H126.528l-27.326 36.056z" opacity="1" data-original="#83deff"></path><path fill="#5ad6ff" d="M126.528 169.98H66.962c-11.379 0-20.604 9.225-20.604 20.604v30.905c0 11.379 9.225 20.604 20.604 20.604h57.518a675.913 675.913 0 0 1-.214-16.998c0-18.606.766-36.993 2.262-55.115z" opacity="1" data-original="#5ad6ff"></path><circle cx="432.01" cy="188.008" r="18.028" fill="#ffbf9d" opacity="1" data-original="#ffbf9d"></circle><path fill="#fd7a6e" d="M409.201 242.093c-7.972 0-13.183-8.32-9.749-15.514 5.799-12.148 18.198-20.542 32.557-20.542s26.758 8.394 32.557 20.542c3.434 7.194-1.777 15.514-9.749 15.514z" opacity="1" data-original="#fd7a6e"></path><path fill="#5ad6ff" d="M445.038 281.755h-226.64c-10.733 0-19.549 8.206-20.516 18.687a3.095 3.095 0 0 1-1.986 2.628l-25.162 9.436c-4.902 1.838-4.902 8.772 0 10.61l25.162 9.436a3.098 3.098 0 0 1 1.986 2.628c.967 10.48 9.783 18.687 20.516 18.687h226.64c11.379 0 20.604-9.225 20.604-20.604v-30.905c0-11.379-9.225-20.603-20.604-20.603z" opacity="1" data-original="#5ad6ff"></path><circle cx="79.99" cy="299.783" r="18.028" fill="#ffbf9d" opacity="1" data-original="#ffbf9d"></circle><path fill="#60daa8" d="M102.799 353.867c7.972 0 13.183-8.32 9.749-15.514-5.799-12.148-18.198-20.542-32.557-20.542s-26.758 8.394-32.557 20.542c-3.434 7.194 1.777 15.514 9.749 15.514z" opacity="1" data-original="#60daa8"></path><path fill="#83deff" d="M445.038 393.529h-226.64c-10.733 0-19.549 8.206-20.516 18.687a3.095 3.095 0 0 1-1.986 2.628l-25.162 9.436c-4.902 1.838-4.902 8.772 0 10.61l25.162 9.436a3.098 3.098 0 0 1 1.986 2.628c.967 10.48 9.783 18.687 20.516 18.687h226.64c11.379 0 20.604-9.225 20.604-20.604v-30.905c0-11.378-9.225-20.603-20.604-20.603z" opacity="1" data-original="#83deff"></path><circle cx="79.99" cy="411.557" r="18.028" fill="#ffbf9d" opacity="1" data-original="#ffbf9d"></circle><path fill="#5c85da" d="M102.799 465.642c7.972 0 13.183-8.32 9.749-15.514-5.799-12.148-18.198-20.542-32.557-20.542s-26.758 8.394-32.557 20.542c-3.434 7.194 1.777 15.514 9.749 15.514z" opacity="1" data-original="#5c85da"></path></g></svg>