<svg xmlns="http://www.w3.org/2000/svg" version="1.1" xmlns:xlink="http://www.w3.org/1999/xlink" width="512" height="512" x="0" y="0" viewBox="0 0 510.025 510.025" style="enable-background:new 0 0 512 512" xml:space="preserve" class=""><g><path fill="#d8d2d7" d="m297.143 157.445-58.35 25.68-32.62-74.12c-12.105-27.503-39.347-45.741-69.53-45.22-40.31.67-72.88 33.67-72.88 74.12v362.12c0 5.52-4.48 10-10 10h-43.75c-5.53 0-10-4.48-10-10v-362.12c0-75.61 61.17-137.2 136.63-137.87 51.093-1.218 104.121 29.337 127.45 82.32z" opacity="1" data-original="#d8d2d7" class=""></path><g fill="#0095ff"><path d="m256.805 378.313-1.255-14.432c-.718-8.253 5.391-15.525 13.644-16.243 8.255-.721 15.526 5.39 16.243 13.644l1.255 14.432c.718 8.253-5.39 15.525-13.644 16.243-8.245.719-15.525-5.384-16.243-13.644zM334.358 348.074l-5.717-12.37c-3.476-7.52-.197-16.434 7.322-19.909 7.522-3.477 16.434-.197 19.909 7.322l5.717 12.37c3.476 7.52.197 16.434-7.322 19.909-7.517 3.475-16.433.201-19.909-7.322zM413.526 317.09l-10.18-10.307c-5.821-5.894-5.762-15.392.132-21.213 5.893-5.821 15.391-5.763 21.213.132l10.18 10.307c5.821 5.895 5.762 15.392-.132 21.213-5.891 5.818-15.389 5.764-21.213-.132zM270.847 483.996c-7.831 0-14.425-6.079-14.952-14.006l-.992-14.941c-.549-8.266 5.707-15.412 13.973-15.961 8.273-.549 15.412 5.707 15.961 13.973l.992 14.941c.574 8.631-6.263 15.994-14.982 15.994zM331.274 438.975l-4.241-13.439c-2.493-7.9 1.891-16.325 9.791-18.818 7.901-2.49 16.326 1.891 18.818 9.791l4.241 13.438c2.493 7.9-1.891 16.326-9.791 18.819-7.907 2.493-16.327-1.897-18.818-9.791zM407.589 407.897 400.1 395.96c-4.402-7.018-2.283-16.275 4.735-20.678 7.017-4.403 16.275-2.283 20.678 4.735l7.489 11.938c4.402 7.018 2.283 16.275-4.735 20.678-7.016 4.4-16.274 2.284-20.678-4.736zM484.558 376.147 473.82 365.71c-5.94-5.774-6.076-15.271-.302-21.211 5.773-5.94 15.271-6.076 21.211-.302l10.738 10.437c5.94 5.774 6.076 15.271.302 21.211-5.771 5.939-15.268 6.079-21.211.302z" fill="#0095ff" opacity="1" data-original="#0095ff"></path></g><path fill="#918291" d="m365.505 148.218 19.238 41.255-177.455 82.749-19.238-41.255c-17.898-38.382-1.293-84.004 37.089-101.902l38.464-17.936c38.382-17.898 84.004-1.293 101.902 37.089z" opacity="1" data-original="#918291"></path><path fill="#685e68" d="m365.505 148.218 19.238 41.255-88.728 41.374-51.644-110.751 19.232-8.968c38.382-17.897 84.004-1.292 101.902 37.09z" opacity="1" data-original="#685e68"></path><path fill="#d8d2d7" d="m404.373 230.945-88.95 41.48h-.02l-88.92 41.47c-15.61 7.28-34.16.53-41.44-15.08l-5.01-10.75c-6.21-13.3-.46-29.1 12.85-35.31l93.1-43.41 93.15-43.44c13.3-6.2 29.11-.45 35.31 12.85l5.02 10.75c7.27 15.61.52 34.16-15.09 41.44z" opacity="1" data-original="#d8d2d7" class=""></path><path fill="#b5adb6" d="m404.373 230.945-88.95 41.48h-.02l-29.42-63.08 93.15-43.44c13.3-6.2 29.11-.45 35.31 12.85l5.02 10.75c7.27 15.61.52 34.16-15.09 41.44z" opacity="1" data-original="#b5adb6"></path></g></svg>