<svg xmlns="http://www.w3.org/2000/svg" version="1.1" xmlns:xlink="http://www.w3.org/1999/xlink" width="512" height="512" x="0" y="0" viewBox="0 0 787.789 787.789" style="enable-background:new 0 0 512 512" xml:space="preserve" class=""><g><g fill-rule="evenodd" clip-rule="evenodd"><path d="M455.73 145.972c-7.608 21.418-28.065 36.777-52.087 36.777-30.492 0-55.246-24.754-55.246-55.246s24.754-55.255 55.246-55.255c6.024 0 11.821.969 17.247 2.747-1.795 14.189 1.87 29.068 11.4 41.184z" fill="#99cdff" opacity="1" data-original="#000000"></path><path d="m253.997 380.093 72.131-53.671s-5.342 124.681-5.696 131.565L306 740.335c-1.264 24.881 17.904 46.113 42.785 47.385s46.113-17.896 47.385-42.776l12.209-238.957 39.726 243.911c4.002 24.586 27.223 41.302 51.809 37.3 24.594-4.011 41.302-27.223 37.3-51.817l-45.178-277.394-7.676-128.321c74.06-42.111 111.352-103.263 111.352-103.263 9.934-10.877 10.54-27.332 1.432-38.909L499.458 63.335c-10.271-13.051-29.203-15.309-42.254-5.038-13.06 10.271-15.318 29.203-5.047 42.254l81.905 104.106s-6.816 5.603-15.672 12.891a103.729 103.729 0 0 1-81.559 22.437c-32.683-5.3-64.624-2.696-95.807 7.954-2.123.725-10.372 4.019-11.981 4.744-50.696 23.027-95.731 55.482-134.421 98.528-10.321 11.476-14.34 27.113-5.729 39.92l74.271 111.908c9.268 13.784 27.981 17.449 41.765 8.19 13.784-9.268 17.449-27.981 8.181-41.765zM265.01 153.96v-27.358a4.22 4.22 0 0 1 2.999-4.036c18.14-5.477 46.163-20.592 46.163-60.765C314.172 27.695 286.486 0 252.371 0c-34.107 0-61.793 27.695-61.793 61.801 0 6.976 5.662 12.638 12.638 12.638s12.638-5.662 12.638-12.638c0-20.162 16.362-36.525 36.516-36.525 20.162 0 36.525 16.362 36.525 36.525 0 24.308-17.222 33.256-28.192 36.567a29.497 29.497 0 0 0-20.971 28.226v27.366c0 6.976 5.67 12.638 12.638 12.638 6.978 0 12.64-5.662 12.64-12.638zM265.01 215.323v-13.076c0-6.976-5.662-12.638-12.638-12.638-6.968 0-12.638 5.662-12.638 12.638v13.076c0 6.976 5.67 12.638 12.638 12.638 6.976 0 12.638-5.662 12.638-12.638z" fill="#99cdff" opacity="1" data-original="#000000"></path></g></g></svg>