<svg xmlns="http://www.w3.org/2000/svg" version="1.1" xmlns:xlink="http://www.w3.org/1999/xlink" width="512" height="512" x="0" y="0" viewBox="0 0 512 512" style="enable-background:new 0 0 512 512" xml:space="preserve" class=""><g><g fill="#43bcff"><path d="M396.7 347.4c-14.7 3.9-30.2 3.5-44.6-1.1-9.5-3-19-6-28.7-8.3-5.6-1.4-13.5-1.4-17.9 1.6-53.4 36.5-118.3 24.3-153.8-29.8-5.1-7.8-10.4-11-19.8-11.8-54-4.5-96.2-48.5-98.1-101.1-2-54.9 35-100.8 89.6-110 10-1.7 14.7-5.7 18.2-15.2 28.7-77.7 124-96.4 179.7-35.4 7.4 8.1 13.5 9.5 23.9 7 41.1-10 77.2.9 105.4 31.8 27.9 30.6 34.2 66.9 21.5 106.7-2.3 7.2-2.7 16.5-.3 23.6 21.5 62.7-14.3 125.2-75.1 142zM216.5 410.8c-.4 23.3-19 42-41.9 42.1-23 .3-41.9-18.2-42.1-41.2v-1.8c.7-23.4 19.3-41.5 42.5-41.3s41.8 19.3 41.5 42.2zM134.7 478.1c-.2 18.8-15.1 33.9-33.4 33.9-18.6 0-33.9-15.4-33.6-33.6.3-18.9 15-33.8 33.5-33.9s33.5 14.8 33.5 33.3z" fill="#99cdff" opacity="1" data-original="#43bcff" class=""></path></g></g></svg>